<svg width="118" height="17" viewBox="0 0 118 17" fill="none" xmlns="http://www.w3.org/2000/svg">
<path d="M6.97656 4.72656C6.32552 4.72656 5.82292 4.95312 5.46875 5.40625C5.11979 5.85938 4.94531 6.48698 4.94531 7.28906C4.94531 8.16406 5.10938 8.8125 5.4375 9.23438C5.77083 9.65625 6.27865 9.86719 6.96094 9.86719C7.40885 9.86719 7.95833 9.75 8.60938 9.51562V10.4844C8.35938 10.5885 8.10156 10.6771 7.83594 10.75C7.57552 10.8229 7.26302 10.8594 6.89844 10.8594C5.88802 10.8594 5.11198 10.5469 4.57031 9.92188C4.02865 9.29167 3.75781 8.41406 3.75781 7.28906C3.75781 6.20052 4.04427 5.33594 4.61719 4.69531C5.19531 4.05469 5.98177 3.73438 6.97656 3.73438C7.64323 3.73438 8.28385 3.89062 8.89844 4.20312L8.44531 5.125C7.88281 4.85938 7.39323 4.72656 6.97656 4.72656ZM0.78125 7.28906C0.78125 6.2474 1.04167 5.27083 1.5625 4.35938C2.08333 3.44792 2.79948 2.72917 3.71094 2.20312C4.6224 1.67708 5.60417 1.41406 6.65625 1.41406C7.69792 1.41406 8.67448 1.67448 9.58594 2.19531C10.4974 2.71615 11.2161 3.43229 11.7422 4.34375C12.2682 5.25521 12.5312 6.23698 12.5312 7.28906C12.5312 8.3151 12.2786 9.27865 11.7734 10.1797C11.2682 11.0807 10.5599 11.8021 9.64844 12.3438C8.73698 12.8854 7.73958 13.1562 6.65625 13.1562C5.57812 13.1562 4.58333 12.888 3.67188 12.3516C2.76042 11.8099 2.04948 11.0885 1.53906 10.1875C1.03385 9.28646 0.78125 8.32031 0.78125 7.28906ZM1.60156 7.28906C1.60156 8.1901 1.82812 9.03385 2.28125 9.82031C2.73438 10.6016 3.35156 11.2188 4.13281 11.6719C4.91927 12.1198 5.76042 12.3438 6.65625 12.3438C7.5625 12.3438 8.40365 12.1172 9.17969 11.6641C9.95573 11.2109 10.5703 10.599 11.0234 9.82812C11.4818 9.05208 11.7109 8.20573 11.7109 7.28906C11.7109 6.38281 11.4844 5.54167 11.0312 4.76562C10.5781 3.98958 9.96354 3.375 9.1875 2.92188C8.41667 2.46354 7.57292 2.23438 6.65625 2.23438C5.75 2.23438 4.90885 2.46094 4.13281 2.91406C3.35677 3.36719 2.73958 3.98177 2.28125 4.75781C1.82812 5.52865 1.60156 6.3724 1.60156 7.28906ZM27.2891 13H25.7266L21.5625 7.46094L20.3672 8.52344V13H19.0391V1.57812H20.3672V7.24219L25.5469 1.57812H27.1172L22.5234 6.53906L27.2891 13ZM36.0625 8.71094C36.0625 10.1068 35.7109 11.1979 35.0078 11.9844C34.3047 12.7656 33.3333 13.1562 32.0938 13.1562C31.3281 13.1562 30.6484 12.9766 30.0547 12.6172C29.4609 12.2578 29.0026 11.7422 28.6797 11.0703C28.3568 10.3984 28.1953 9.61198 28.1953 8.71094C28.1953 7.3151 28.5443 6.22917 29.2422 5.45312C29.9401 4.67188 30.9089 4.28125 32.1484 4.28125C33.3464 4.28125 34.2969 4.67969 35 5.47656C35.7083 6.27344 36.0625 7.35156 36.0625 8.71094ZM29.5391 8.71094C29.5391 9.80469 29.7578 10.638 30.1953 11.2109C30.6328 11.7839 31.276 12.0703 32.125 12.0703C32.974 12.0703 33.6172 11.7865 34.0547 11.2188C34.4974 10.6458 34.7188 9.8099 34.7188 8.71094C34.7188 7.6224 34.4974 6.79688 34.0547 6.23438C33.6172 5.66667 32.9688 5.38281 32.1094 5.38281C31.2604 5.38281 30.6198 5.66146 30.1875 6.21875C29.7552 6.77604 29.5391 7.60677 29.5391 8.71094ZM39.6406 13H38.3438V0.84375H39.6406V13ZM46.0078 13.1562C44.7422 13.1562 43.7422 12.7708 43.0078 12C42.2786 11.2292 41.9141 10.1589 41.9141 8.78906C41.9141 7.40885 42.2526 6.3125 42.9297 5.5C43.612 4.6875 44.526 4.28125 45.6719 4.28125C46.7448 4.28125 47.5938 4.63542 48.2188 5.34375C48.8438 6.04688 49.1562 6.97656 49.1562 8.13281V8.95312H43.2578C43.2839 9.95833 43.5365 10.7214 44.0156 11.2422C44.5 11.763 45.1797 12.0234 46.0547 12.0234C46.9766 12.0234 47.888 11.8307 48.7891 11.4453V12.6016C48.3307 12.7995 47.8958 12.9401 47.4844 13.0234C47.0781 13.112 46.5859 13.1562 46.0078 13.1562ZM45.6562 5.36719C44.9688 5.36719 44.4193 5.59115 44.0078 6.03906C43.6016 6.48698 43.362 7.10677 43.2891 7.89844H47.7656C47.7656 7.08073 47.5833 6.45573 47.2188 6.02344C46.8542 5.58594 46.3333 5.36719 45.6562 5.36719ZM56.8984 10.6641C56.8984 11.4609 56.6016 12.0755 56.0078 12.5078C55.4141 12.9401 54.5807 13.1562 53.5078 13.1562C52.3724 13.1562 51.487 12.9766 50.8516 12.6172V11.4141C51.263 11.6224 51.7031 11.7865 52.1719 11.9062C52.6458 12.026 53.1016 12.0859 53.5391 12.0859C54.2161 12.0859 54.737 11.9792 55.1016 11.7656C55.4661 11.5469 55.6484 11.2161 55.6484 10.7734C55.6484 10.4401 55.5026 10.1562 55.2109 9.92188C54.9245 9.68229 54.362 9.40104 53.5234 9.07812C52.7266 8.78125 52.1589 8.52344 51.8203 8.30469C51.487 8.08073 51.237 7.82812 51.0703 7.54688C50.9089 7.26562 50.8281 6.92969 50.8281 6.53906C50.8281 5.84115 51.112 5.29167 51.6797 4.89062C52.2474 4.48438 53.026 4.28125 54.0156 4.28125C54.9375 4.28125 55.8385 4.46875 56.7188 4.84375L56.2578 5.89844C55.3984 5.54427 54.6198 5.36719 53.9219 5.36719C53.3073 5.36719 52.8438 5.46354 52.5312 5.65625C52.2188 5.84896 52.0625 6.11458 52.0625 6.45312C52.0625 6.68229 52.1198 6.8776 52.2344 7.03906C52.3542 7.20052 52.5443 7.35417 52.8047 7.5C53.0651 7.64583 53.5651 7.85677 54.3047 8.13281C55.3203 8.5026 56.0052 8.875 56.3594 9.25C56.7188 9.625 56.8984 10.0964 56.8984 10.6641ZM64.2812 13L64.0234 11.7812H63.9609C63.5339 12.3177 63.1068 12.6823 62.6797 12.875C62.2578 13.0625 61.7292 13.1562 61.0938 13.1562C60.2448 13.1562 59.5781 12.9375 59.0938 12.5C58.6146 12.0625 58.375 11.4401 58.375 10.6328C58.375 8.90365 59.7578 7.9974 62.5234 7.91406L63.9766 7.86719V7.33594C63.9766 6.66406 63.8307 6.16927 63.5391 5.85156C63.2526 5.52865 62.7917 5.36719 62.1562 5.36719C61.4427 5.36719 60.6354 5.58594 59.7344 6.02344L59.3359 5.03125C59.7578 4.80208 60.2188 4.6224 60.7188 4.49219C61.224 4.36198 61.7292 4.29688 62.2344 4.29688C63.2552 4.29688 64.0104 4.52344 64.5 4.97656C64.9948 5.42969 65.2422 6.15625 65.2422 7.15625V13H64.2812ZM61.3516 12.0859C62.1589 12.0859 62.7917 11.8646 63.25 11.4219C63.7135 10.9792 63.9453 10.3594 63.9453 9.5625V8.78906L62.6484 8.84375C61.6172 8.88021 60.8724 9.04167 60.4141 9.32812C59.9609 9.60938 59.7344 10.0495 59.7344 10.6484C59.7344 11.1172 59.875 11.474 60.1562 11.7188C60.4427 11.9635 60.8411 12.0859 61.3516 12.0859ZM77.2969 7.01562H81.1797V12.5703C80.5755 12.763 79.9609 12.9089 79.3359 13.0078C78.7109 13.1068 77.987 13.1562 77.1641 13.1562C75.4349 13.1562 74.0885 12.6432 73.125 11.6172C72.1615 10.5859 71.6797 9.14323 71.6797 7.28906C71.6797 6.10156 71.9167 5.0625 72.3906 4.17188C72.8698 3.27604 73.5573 2.59375 74.4531 2.125C75.349 1.65104 76.3984 1.41406 77.6016 1.41406C78.8203 1.41406 79.9557 1.63802 81.0078 2.08594L80.4922 3.25781C79.4609 2.82031 78.4688 2.60156 77.5156 2.60156C76.125 2.60156 75.0391 3.01562 74.2578 3.84375C73.4766 4.67188 73.0859 5.82031 73.0859 7.28906C73.0859 8.83073 73.4609 10 74.2109 10.7969C74.9661 11.5938 76.0729 11.9922 77.5312 11.9922C78.3229 11.9922 79.0964 11.901 79.8516 11.7188V8.20312H77.2969V7.01562ZM87.6406 4.28125C88.0208 4.28125 88.362 4.3125 88.6641 4.375L88.4844 5.57812C88.1302 5.5 87.8177 5.46094 87.5469 5.46094C86.8542 5.46094 86.2604 5.74219 85.7656 6.30469C85.276 6.86719 85.0312 7.56771 85.0312 8.40625V13H83.7344V4.4375H84.8047L84.9531 6.02344H85.0156C85.3333 5.46615 85.7161 5.03646 86.1641 4.73438C86.612 4.43229 87.1042 4.28125 87.6406 4.28125ZM97.6562 8.71094C97.6562 10.1068 97.3047 11.1979 96.6016 11.9844C95.8984 12.7656 94.9271 13.1562 93.6875 13.1562C92.9219 13.1562 92.2422 12.9766 91.6484 12.6172C91.0547 12.2578 90.5964 11.7422 90.2734 11.0703C89.9505 10.3984 89.7891 9.61198 89.7891 8.71094C89.7891 7.3151 90.138 6.22917 90.8359 5.45312C91.5339 4.67188 92.5026 4.28125 93.7422 4.28125C94.9401 4.28125 95.8906 4.67969 96.5938 5.47656C97.3021 6.27344 97.6562 7.35156 97.6562 8.71094ZM91.1328 8.71094C91.1328 9.80469 91.3516 10.638 91.7891 11.2109C92.2266 11.7839 92.8698 12.0703 93.7188 12.0703C94.5677 12.0703 95.2109 11.7865 95.6484 11.2188C96.0911 10.6458 96.3125 9.8099 96.3125 8.71094C96.3125 7.6224 96.0911 6.79688 95.6484 6.23438C95.2109 5.66667 94.5625 5.38281 93.7031 5.38281C92.8542 5.38281 92.2135 5.66146 91.7812 6.21875C91.349 6.77604 91.1328 7.60677 91.1328 8.71094ZM101.156 4.4375V9.99219C101.156 10.6901 101.315 11.2109 101.633 11.5547C101.951 11.8984 102.448 12.0703 103.125 12.0703C104.021 12.0703 104.674 11.8255 105.086 11.3359C105.503 10.8464 105.711 10.0469 105.711 8.9375V4.4375H107.008V13H105.938L105.75 11.8516H105.68C105.414 12.2734 105.044 12.5964 104.57 12.8203C104.102 13.0443 103.565 13.1562 102.961 13.1562C101.919 13.1562 101.138 12.9089 100.617 12.4141C100.102 11.9193 99.8438 11.1276 99.8438 10.0391V4.4375H101.156ZM113.75 13.1562C113.193 13.1562 112.682 13.0547 112.219 12.8516C111.76 12.6432 111.375 12.3255 111.062 11.8984H110.969C111.031 12.3984 111.062 12.8724 111.062 13.3203V16.8438H109.766V4.4375H110.82L111 5.60938H111.062C111.396 5.14062 111.784 4.80208 112.227 4.59375C112.669 4.38542 113.177 4.28125 113.75 4.28125C114.885 4.28125 115.76 4.66927 116.375 5.44531C116.995 6.22135 117.305 7.3099 117.305 8.71094C117.305 10.1172 116.99 11.2109 116.359 11.9922C115.734 12.7682 114.865 13.1562 113.75 13.1562ZM113.562 5.38281C112.688 5.38281 112.055 5.625 111.664 6.10938C111.273 6.59375 111.073 7.36458 111.062 8.42188V8.71094C111.062 9.91406 111.263 10.776 111.664 11.2969C112.065 11.8125 112.708 12.0703 113.594 12.0703C114.333 12.0703 114.911 11.7708 115.328 11.1719C115.75 10.5729 115.961 9.7474 115.961 8.69531C115.961 7.6276 115.75 6.8099 115.328 6.24219C114.911 5.66927 114.323 5.38281 113.562 5.38281Z" fill="white"/>
</svg>
