<svg width="23" height="24" viewBox="0 0 23 24" fill="none" xmlns="http://www.w3.org/2000/svg">
<path d="M0 6.4C0 4.15979 0 3.03969 0.435974 2.18404C0.819467 1.43139 1.43139 0.819467 2.18404 0.435974C3.03969 0 4.15979 0 6.4 0H16.6C18.8402 0 19.9603 0 20.816 0.435974C21.5686 0.819467 22.1805 1.43139 22.564 2.18404C23 3.03969 23 4.15979 23 6.4V17.6C23 19.8402 23 20.9603 22.564 21.816C22.1805 22.5686 21.5686 23.1805 20.816 23.564C19.9603 24 18.8402 24 16.6 24H6.4C4.15979 24 3.03969 24 2.18404 23.564C1.43139 23.1805 0.819467 22.5686 0.435974 21.816C0 20.9603 0 19.8402 0 17.6V6.4Z" fill="#EFE8D8"/>
</svg>
