<svg width="32" height="28" viewBox="0 0 32 28" fill="none" xmlns="http://www.w3.org/2000/svg">
<path d="M30.3901 11.1979C31.4317 9.99321 32 8.472 32 6.86342C32 5.09014 31.3095 3.42308 30.0555 2.16924C28.8017 0.915401 27.1346 0.224854 25.3614 0.224854C23.7531 0.224854 22.2322 0.792911 21.0277 1.83404L20.891 1.69936C20.6901 1.50143 20.3667 1.50382 20.1688 1.70474C19.9709 1.9056 19.9733 2.22895 20.1742 2.42688L20.3077 2.55843C19.2823 3.75834 18.7229 5.26778 18.7229 6.86335C18.7229 7.06877 18.7326 7.27263 18.7509 7.47471L4.57986 23.313C4.39916 23.5151 4.40767 23.8229 4.59934 24.0147L6.04368 25.459L5.75329 25.7494C4.67219 26.8307 2.91294 26.8306 1.8317 25.7495C0.750533 24.6683 0.750533 22.909 1.8317 21.8278L11.4229 12.2366C12.9023 10.7572 12.9023 8.35005 11.4229 6.87057C9.94348 5.39122 7.5363 5.39122 6.05696 6.87057L0.148227 12.7793L0.870367 13.5015L6.7791 7.59278C7.86034 6.51168 9.61959 6.51161 10.7007 7.59278C11.7819 8.67394 11.7819 10.4332 10.7007 11.5144L1.10956 21.1056C-0.369853 22.585 -0.369853 24.9922 1.10956 26.4716C1.84927 27.2113 2.82088 27.5811 3.79249 27.5811C4.76411 27.5811 5.73579 27.2113 6.4755 26.4716L6.76582 26.1812L8.21024 27.6255C8.30965 27.7249 8.44038 27.775 8.57138 27.775C8.69291 27.775 8.81465 27.7319 8.91182 27.6449L22.4949 15.4917C22.4968 15.4899 24.7499 13.474 24.7499 13.474C24.9521 13.4923 25.156 13.502 25.3614 13.502C26.9567 13.502 28.4658 12.9428 29.6657 11.9177L29.7997 12.0525C29.8996 12.1528 30.0306 12.2029 30.1616 12.2029C30.2919 12.2029 30.4223 12.1533 30.5219 12.0541C30.7218 11.8551 30.7225 11.5318 30.5235 11.332L30.3901 11.1979ZM8.59085 26.5617L7.12744 25.0984C7.12648 25.0974 5.66314 23.6341 5.66314 23.6341L16.9633 11.0045C17.4139 11.9198 18.0094 12.7513 18.7415 13.4835C19.4736 14.2155 20.3051 14.811 21.2205 15.2616L8.59085 26.5617ZM22.0496 14.5197C21.0843 14.1031 20.2154 13.5129 19.4636 12.7613C18.7118 12.0094 18.1217 11.1405 17.7051 10.1753L18.9905 8.7387C19.2992 9.79297 19.8688 10.7591 20.6673 11.5577C21.4657 12.3561 22.4318 12.9257 23.4861 13.2344L22.0496 14.5197ZM25.3614 12.4807C23.861 12.4806 22.4504 11.8963 21.3895 10.8354C20.3285 9.77445 19.7442 8.3638 19.7442 6.86342C19.7442 5.53836 20.2005 4.28378 21.0378 3.27778L22.1143 4.33845C22.2138 4.43643 22.3432 4.48532 22.4727 4.48532C22.6046 4.48532 22.7365 4.43445 22.8365 4.33307C23.0344 4.13221 23.032 3.80886 22.8311 3.61093L21.7588 2.55441C22.7677 1.70794 24.0288 1.24617 25.3614 1.24617C26.8618 1.24617 28.2725 1.83043 29.3334 2.89145C30.3944 3.95232 30.9787 5.36297 30.9787 6.86342C30.9787 8.19815 30.5153 9.46111 29.6663 10.4708L24.279 5.05882C24.08 4.85878 23.7567 4.8581 23.5568 5.05719C23.3569 5.25614 23.3562 5.57949 23.5552 5.77933L28.9424 11.1912C27.9371 12.0258 26.6844 12.4807 25.3614 12.4807Z" fill="#FFC726"/>
</svg>
